<?xml version="1.0" encoding="utf-8"?>
<!-- Generator: Adobe Illustrator 26.0.1, SVG Export Plug-In . SVG Version: 6.00 Build 0)  -->
<svg version="1.1" id="Слой_1" xmlns="http://www.w3.org/2000/svg" xmlns:xlink="http://www.w3.org/1999/xlink" x="0px" y="0px"
	 viewBox="0 0 2000 2000" style="enable-background:new 0 0 2000 2000;" xml:space="preserve">
<style type="text/css">
	.st0{fill:#FFFFFF;}
</style>
<path class="st0" d="M1912.1,1164.1c-15.9-34.3-24.2-57.1-47.4-88.2c-19.9-26.6-42.1-50.2-66.9-70.6s-50.8-37.5-78.1-51.1
	c23.6-11.2,45.9-25.3,66.9-42.7c21-17.4,39.3-36.9,54.9-58.6c6-8.2,11.2-16.9,16.3-25.7c13.1-23.6,19.9-35.4,20-45
	c0.6-35-79.4-38-92.5-80c-15.4-49.3,79.4-92.5,64.6-154.2c-4.7-19.5-21-36-52.8-69.3c-15.5-16.3-32.8-31.3-51.1-45
	c-42.1-30.9-89.5-54.1-142.2-69.7s-103.8-23.2-153.4-23.2c-50.8,0-101.9,8.1-153.4,24.2c-51.5,16.1-98.5,39.7-141.2,70.6
	c-23,16.7-43.8,35.6-62.4,56.6c-24.7,28.1-25.5,37.8-34.3,49.5c0,0-3.4,4.3-7.5,8.4c-18.7,18.5-77,37.5-91.6,63.1
	c-18.7,32.8,33.9,77.2,60.1,158.5c2.6,8.1,11.4,32.8,27.9,63.5c3,5.6,6.7,11.6,11.8,18.7c32.2,44.6,71.2,78.1,117.1,100.4
	c-24.7,12.4-49.3,28.5-73.4,48.3c-24.2,19.9-46.1,42.7-65.9,68.7c-31.8,42-48,62.8-48.3,86.4c-0.6,48.9,53.6,53.6,63.7,105.8
	c1.9,9.7,1.7,18.5,0.2,27c-207.5,34.1-414.9,68.2-622.5,102.3c-14.6-113.3-17.2-204.7-17.2-264.1c-0.2-160.5,18-392.1-11.1-567.8
	c-14.6-89.2-52.1-156-145-237.9C173.1,337,84.3,340.5,0,354.4c96.5,101,139.4,195,160.7,258.7c28.5,84.9,28.3,232.8,26.6,525.4
	c-0.6,108.3-0.9,153.2,1.7,238.6c3,93.7,9.7,186.9,24.9,279.5l852.1-140.1c13.5,15.5,28.1,30,44,43.6
	c43.3,37.1,94.2,65.9,152.5,86.4c58.3,20.4,120.3,30.7,185.8,30.7c65.7,0,127.6-9.6,185.8-28.8c58.3-19.1,109.4-46.8,153.4-82.8
	c27.2-22.3,50.8-47,70.8-74.4c19.9-27,18.2-32.8,33.2-53.8c46.6-65.4,92-54.5,105.5-92.2C2009.2,1311.8,1974.3,1298.5,1912.1,1164.1
	z M1201.6,683.7c5.2-16.1,39-4.7,76.8-32.4c22.7-16.5,18.9-31.1,39.9-47.4c36-27.9,79.2-41.8,130.2-41.8
	c52.1,0,96.3,13.7,132.8,40.8c18.7,13.9,40.5,27.3,40.8,47.2c0.6,25.5-33.2,32.2-33.9,59.6c-0.9,29.8,38.2,45,31.1,70.8
	c-1.3,4.7-5.6,9.9-14.2,20.6c-8.6,10.7-18.4,20-29.4,28.7c-18,13.7-38,23.8-60.3,30.7c-22.3,6.7-44,10.3-65,10.3
	c-22.3,0-44.4-3.4-65.9-10.3c-21.7-6.7-41.6-16.7-59.6-29.8c-9-6.6-17-13.7-24.4-21.7c-11.1-12.2-17.2-23-19.3-26.6
	C1254.6,737.4,1194.3,705.8,1201.6,683.7z M1744.3,1282.2c-6.9,31.1-79.6,50.6-85.4,52.1c-0.2,0-0.2,0-0.4,0.2
	c-12.2,3.2-13.1,22.7-20.8,32.4c-8.6,10.9-18.4,20.8-29.2,29.8c-21.2,17.4-45.3,30.9-72.5,40.8c-27.3,9.9-55.8,14.8-85.4,14.8
	c-28.5,0-56.4-4.7-83.5-13.9c-27.3-9.4-51.5-22.7-72.5-39.9c-11.1-9.2-23.4-22.7-25.3-24.7c-9.4-9.9-14-15-15.2-17.2
	c-11.8-25.3,46.3-53.4,44.6-92.9c-1.7-39.9-62.8-55.4-56.2-89.2c1.9-9.9,9.2-18.7,23.8-36.3c7.7-9.4,16.1-18,25.5-25.8
	c20.4-17.4,44.2-30.7,71.6-39.9c27.2-9.4,55.8-13.9,85.4-13.9c28.5,0,56.4,4.3,83.5,12.9c27.2,8.6,51.7,21.4,73.4,38
	c8.2,6.4,15.9,13.5,23,21c17.2,18.5,26,35.8,29,41.2C1688.7,1229.5,1751.2,1251.2,1744.3,1282.2z"/>
</svg>
